STARTFONT 2.1
FONT -Misc-Fixed-Medium-R-Normal--7-70-75-75-C-50-ISO10646-1
SIZE 7 75 75
FONTBOUNDINGBOX 5 7 0 -1
COMMENT "Generated by fontforge, http://fontforge.sourceforge.net"
COMMENT "$Id: 5x7.bdf,v 1.38 2006-01-05 20:03:17+00 mgk25 Rel $"
COMMENT "Send bug reports to Markus Kuhn <http://www.cl.cam.ac.uk/~mgk25/>"
STARTPROPERTIES 23
FONTNAME_REGISTRY ""
FOUNDRY "Misc"
FAMILY_NAME "Fixed"
WEIGHT_NAME "Medium"
SLANT "R"
SETWIDTH_NAME "Normal"
ADD_STYLE_NAME ""
PIXEL_SIZE 7
POINT_SIZE 70
RESOLUTION_X 75
RESOLUTION_Y 75
SPACING "C"
AVERAGE_WIDTH 50
CHARSET_REGISTRY "ISO10646"
CHARSET_ENCODING "1"
FONT_ASCENT 6
FONT_DESCENT 1
DESTINATION 1
DEFAULT_CHAR 0
COPYRIGHT "Public domain font.  Share and enjoy."
_XMBDFED_INFO "Edited with xmbdfed 4.5."
CAP_HEIGHT 6
X_HEIGHT 4
ENDPROPERTIES
CHARS 15
STARTCHAR char0
ENCODING 0
SWIDTH 685 0
DWIDTH 5 0
BBX 5 5 0 0
BITMAP
A8
00
88
00
A8
ENDCHAR
STARTCHAR zero
ENCODING 48
SWIDTH 685 0
DWIDTH 5 0
BBX 4 3 0 1
BITMAP
60
F0
60
ENDCHAR
STARTCHAR one
ENCODING 49
SWIDTH 685 0
DWIDTH 5 0
BBX 4 7 0 -1
BITMAP
10
30
60
C0
C0
40
60
ENDCHAR
STARTCHAR two
ENCODING 50
SWIDTH 685 0
DWIDTH 5 0
BBX 4 7 0 -1
BITMAP
30
60
C0
C0
C0
60
30
ENDCHAR
STARTCHAR three
ENCODING 51
SWIDTH 685 0
DWIDTH 5 0
BBX 4 7 0 -1
BITMAP
20
40
F0
80
40
20
10
ENDCHAR
STARTCHAR four
ENCODING 52
SWIDTH 685 0
DWIDTH 5 0
BBX 4 7 0 -1
BITMAP
B0
A0
40
20
90
90
F0
ENDCHAR
STARTCHAR five
ENCODING 53
SWIDTH 685 0
DWIDTH 5 0
BBX 4 7 0 -1
BITMAP
70
80
E0
80
E0
80
40
ENDCHAR
STARTCHAR six
ENCODING 54
SWIDTH 685 0
DWIDTH 5 0
BBX 4 6 0 0
BITMAP
90
60
60
60
90
90
ENDCHAR
STARTCHAR seven
ENCODING 55
SWIDTH 685 0
DWIDTH 5 0
BBX 4 7 0 -1
BITMAP
10
A0
E0
60
A0
20
10
ENDCHAR
STARTCHAR eight
ENCODING 56
SWIDTH 685 0
DWIDTH 5 0
BBX 4 7 0 -1
BITMAP
90
60
60
60
60
60
90
ENDCHAR
STARTCHAR nine
ENCODING 57
SWIDTH 685 0
DWIDTH 5 0
BBX 5 7 0 -1
BITMAP
20
70
A8
20
20
20
70
ENDCHAR
STARTCHAR colon
ENCODING 58
SWIDTH 685 0
DWIDTH 5 0
BBX 2 5 1 0
BITMAP
C0
C0
00
C0
C0
ENDCHAR
STARTCHAR A
ENCODING 65
SWIDTH 685 0
DWIDTH 5 0
BBX 4 7 1 -1
BITMAP
30
40
40
60
80
E0
10
ENDCHAR
STARTCHAR M
ENCODING 77
SWIDTH 685 0
DWIDTH 5 0
BBX 4 7 1 -1
BITMAP
70
50
90
A0
80
80
40
ENDCHAR
STARTCHAR P
ENCODING 80
SWIDTH 685 0
DWIDTH 5 0
BBX 4 7 1 -1
BITMAP
40
30
50
10
20
40
80
ENDCHAR
ENDFONT
